<?xml version="1.0" encoding="UTF-8"?>
<svg id="Layer_1" data-name="Layer 1" xmlns="http://www.w3.org/2000/svg" viewBox="0 0 1920 1080">
  <defs>
    <style>
      .cls-1 {
        fill: #005e8e;
      }
    </style>
  </defs>
  <path class="cls-1" d="M587.46,325.02l-17.32,128.74,40.03-3.34,13.33-127.89-36.05,2.48Z"/>
  <path class="cls-1" d="M588.05,218.04l-2.05,13.98,49.09-2.81,1.43-13.88-48.47,2.7Z"/>
  <path class="cls-1" d="M593.71,179.5l-1.92,13.15,67.28-3.56,1.06-12.99-66.42,3.39Z"/>
  <path class="cls-1" d="M545.83,181.94l-19.04,98.56,34.71-2.18,15.94-98.02-31.62,1.64Z"/>
  <path class="cls-1" d="M581.63,261.69l-2.3,15.5,74.15-4.62,1.26-15.36-73.11,4.48Z"/>
  <path class="cls-1" d="M721.61,173.38l-5.01,95.2,33.46-2.06v-94.96l-28.45,1.82Z"/>
  <path class="cls-1" d="M841.48,166.9s5.97,63.07,6.76,71.35c-1.08.04-1.26.08-2.13.12-3.23-2.61-80.93-65.66-80.93-65.66l.53,28.09,70.66,60.29,42.58-2.66-11.13-92.9-26.34,1.37Z"/>
  <path class="cls-1" d="M714.2,316.33l-5.12,125.72,40.99-3.27v-124.81l-35.87,2.36Z"/>
  <path class="cls-1" d="M854.57,306.8s7.74,82.3,8.72,93.2c-1.18.09-1.42.09-2.42.17-3.75-3.35-93.03-84.92-93.03-84.92l.63,36.6,81.5,78.55,48.94-4.12-14.44-121.52-29.91,2.03Z"/>
  <path class="cls-1" d="M706.08,505.77l-8.07,172.49,52.05-5.54v-171.07l-43.98,4.12Z"/>
  <path class="cls-1" d="M871.34,490.49s10.56,111.73,11.95,126.69c-1.44.16-1.68.18-2.89.32-4.4-4.6-109.48-114.38-109.48-114.38l.92,49.55,96.38,106.81,57.43-6.49-19.76-165.66-34.54,3.15Z"/>
  <path class="cls-1" d="M102.29,358.25L27.36,499.34l45.21-3.81,69.92-140.02-40.2,2.74Z"/>
  <path class="cls-1" d="M163.06,354.09l-8.78,18.26,10.22-.75c30.92-2.18,46.1.1,38,18.62-7.63,17.44-25.81,26.13-60.89,28.8l-10.23.79-9.79,20.27,13.38-1.05c79.24-6.18,102.5-35.64,109.15-52.08,10.69-26.5-12.29-37.55-68.58-33.7l-12.47.84Z"/>
  <path class="cls-1" d="M425.78,351.12l4.78.3c20.63,1.3,43.64,9.69,36.16,43.18-7.9,35.32-37.8,49.11-61.69,54.31l-5.56,1.2-5.61,21.16,8.11-1.36c59.35-9.91,97.38-39.13,104.91-78.35,7.08-37.02-18.24-57.6-69.45-58.12l-6.96-.04-4.69,17.72Z"/>
  <path class="cls-1" d="M404.11,335.58c-55.65,7.44-95.66,33.1-109.63,72.08-14.84,41.43,10.57,66.14,70.06,65.58l7.71-.1,5.95-21.1-5.42-.24c-23.53-1-48.98-10.25-36.91-47.24,11.4-34.99,41.78-47.11,65.08-51.29l5.33-.96,4.96-17.67-7.13.95Z"/>
  <path class="cls-1" d="M1097.36,488.44l5.09.34c21.93,1.36,50.49,11.13,62.55,51.18,12.76,42.43-9.87,59.29-31.51,65.78l-5.01,1.52,6.72,25.55,7.59-1.73c55.4-12.52,77.25-48.05,61.68-95.1-14.6-44.27-52.7-68.46-105.5-68.63h-7.14l5.54,21.11Z"/>
  <path class="cls-1" d="M1066.03,470.19c-52.76,9.32-79.05,40.25-70.74,87.02,8.84,49.92,49.54,79.48,110.75,78.22l7.93-.13-6.35-25.55-5.67-.24c-24.92-.97-56.62-11.87-65.83-56.43-8.65-41.93,15.53-56.66,37.02-61.84l4.91-1.16-5.23-21.1-6.8,1.2Z"/>
  <path class="cls-1" d="M1639.75,420.07l99.15,141.15,34.71-3.89-102.17-140.18-31.69,2.91Z"/>
  <path class="cls-1" d="M1749.75,409.99s36.92,46.42,42.48,53.39c-9.01.92-64.38,6.41-64.38,6.41l14.6,19.72s56.11-5.78,65.22-6.72c5.83,7.35,51.57,64.88,51.57,64.88l33.4-3.78-112.25-136.72-30.64,2.81Z"/>
  <path class="cls-1" d="M1090.45,154.16l30.46,89.09,30.22-1.89-32.85-88.59-27.83,1.39Z"/>
  <path class="cls-1" d="M1132.72,152.05l4.57,11.79,6.8-.39c19.61-1.01,33.58.59,38.36,11.84,4.12,9.74-5.2,14.98-29.57,16.39l-4.78.28,4.91,12.76s6.56-.37,8.24-.5c3.55,2.07,56.9,32.95,56.9,32.95l35.71-2.26s-56.27-30.58-64.91-35.25c22.37-5.72,25.99-17.19,22.03-25.92-5.25-11.62-20.93-24.66-66.83-22.32l-11.45.63Z"/>
  <path class="cls-1" d="M1253.19,455.52l59.63,153.81,39.12-4.41-63.49-152.65-35.26,3.25Z"/>
  <path class="cls-1" d="M1306.68,450.6l8.53,19.86,8.67-.81c24.79-2.36,43.03-.08,51.96,18.95,7.77,16.57-2.89,25.92-33.9,29.09l-6.12.63,9.48,21.95s8.4-.87,10.5-1.08c5.15,3.49,82.53,55.95,82.53,55.95l45.85-5.15s-81.35-51.78-93.74-59.68h0c27.39-10.56,28.94-30.46,21.56-45.24-9.74-19.58-33.03-41.09-90.88-35.8l-14.44,1.31Z"/>
  <path class="cls-1" d="M1231.98,146.98l73.18,42.21,6.28-14.81-49.86-28.88-29.59,1.48Z"/>
  <path class="cls-1" d="M1340.42,141.42l-23.68,57.67.37.66,16.39,30.14,28.99-1.77s-15.75-27.1-16.49-28.37c1.94-5.87,21.35-59.68,21.35-59.68l-26.91,1.35Z"/>
  <path class="cls-1" d="M919.54,163.12l2.06,12.45,129.88-6.81-3.58-12.2-128.36,6.56Z"/>
  <path class="cls-1" d="M974.04,180.95l15.33,70.83,31.67-1.98-17.28-70.42-29.72,1.58Z"/>
  <path class="cls-1" d="M1438.2,438.54l10.5,19.6,149.51-14.13-12.5-19.01-147.51,13.54Z"/>
  <path class="cls-1" d="M1514.61,465.29l66.35,113.82,36.81-4.2-68.93-112.91-34.24,3.3Z"/>
  <path class="cls-1" d="M943.04,300.67l2.74,16.06,146.77-10.35-4.67-15.62-144.84,9.91Z"/>
  <path class="cls-1" d="M1005.49,323.06l20.4,92.47,36.09-3.02-22.94-91.89-33.56,2.44Z"/>
  <path class="cls-1" d="M726.9,59.72l-3.54,76.27,26.7-1.18V58.72l-23.16,1Z"/>
  <path class="cls-1" d="M693.73,769.47l-11.8,251.81,68.14-10.14v-248.87l-56.33,7.2Z"/>
</svg>
